<?xml version="1.0" encoding="utf-8"?>
<!-- Generator: Adobe Illustrator 22.0.1, SVG Export Plug-In . SVG Version: 6.00 Build 0)  -->
<svg version="1.1" id="Layer_1" xmlns="http://www.w3.org/2000/svg" xmlns:xlink="http://www.w3.org/1999/xlink" x="0px" y="0px"
	 viewBox="0 0 248.2 92.4" style="enable-background:new 0 0 248.2 92.4;" xml:space="preserve">
<style type="text/css">
	.st0{fill:#D03B51;}
	.st1{fill:#171738;}
	.st2{fill:none;stroke:#171738;stroke-width:1.6483;stroke-miterlimit:10;}
</style>
<g>
	<g>
		<path class="st0" d="M5.6,87.4L30,2.7h18.5L73,87.4H57.8l-18-68.2h-1.1l-18,68.2H5.6z M17.5,69.5V56.3h42.9v13.2H17.5z"/>
	</g>
	<path class="st1" d="M82.3,62.9c1.7,1.1,4.6,2.2,7.4,2.2c4.1,0,6-2,6-4.6c0-2.7-1.6-4.1-5.7-5.7c-5.5-2-8.2-5-8.2-8.7
		c0-5,4-9.1,10.6-9.1c3.1,0,5.9,0.9,7.6,1.9l-1.4,4.1c-1.2-0.8-3.4-1.8-6.3-1.8c-3.3,0-5.2,1.9-5.2,4.2c0,2.5,1.8,3.7,5.9,5.2
		c5.4,2,8.1,4.7,8.1,9.3c0,5.4-4.2,9.2-11.5,9.2c-3.4,0-6.5-0.8-8.7-2.1L82.3,62.9z"/>
	<path class="st1" d="M111.4,54.2c0.1,7.6,5,10.7,10.6,10.7c4,0,6.4-0.7,8.5-1.6l1,4c-2,0.9-5.4,1.9-10.3,1.9
		c-9.5,0-15.2-6.2-15.2-15.6c0-9.3,5.5-16.6,14.5-16.6c10.1,0,12.7,8.9,12.7,14.5c0,1.1-0.1,2-0.2,2.6H111.4z M127.8,50.2
		c0.1-3.6-1.5-9.1-7.8-9.1c-5.7,0-8.2,5.2-8.6,9.1H127.8z"/>
	<path class="st1" d="M140.2,46.1c0-3.2-0.1-5.8-0.3-8.4h5l0.3,5.1h0.1c1.5-2.9,5.1-5.8,10.2-5.8c4.3,0,10.9,2.5,10.9,13.1v18.4
		h-5.6V50.8c0-5-1.8-9.1-7.1-9.1c-3.7,0-6.6,2.6-7.5,5.7c-0.3,0.7-0.4,1.7-0.4,2.6v18.6h-5.6V46.1z"/>
	<path class="st1" d="M190.4,16c0.2,6.7-4.7,12-12.4,12c-6.9,0-11.7-5.3-11.7-12c0-6.9,5.1-12.2,12.2-12.2
		C185.8,3.8,190.4,9.1,190.4,16z M175.6,68.6V37.8h5.6v30.9H175.6z"/>
	<path class="st1" d="M218.4,52.9c0,11.4-7.9,16.4-15.4,16.4c-8.4,0-14.8-6.1-14.8-15.9c0-10.3,6.8-16.4,15.3-16.4
		C212.4,37.1,218.4,43.5,218.4,52.9z M193.9,53.3c0,6.8,3.9,11.9,9.4,11.9c5.4,0,9.4-5,9.4-12c0-5.2-2.6-11.9-9.2-11.9
		C196.8,41.3,193.9,47.4,193.9,53.3z"/>
	<path class="st1" d="M225.5,47.4c0-3.6-0.1-6.8-0.3-9.6h4.9l0.2,6.1h0.3c1.4-4.1,4.8-6.8,8.5-6.8c0.6,0,1.1,0.1,1.6,0.2v5.3
		c-0.6-0.1-1.1-0.2-1.9-0.2c-4,0-6.8,3-7.5,7.2c-0.1,0.8-0.3,1.7-0.3,2.6v16.4h-5.5V47.4z"/>
	<line class="st2" x1="116.8" y1="19.2" x2="130" y2="30.2"/>
	<circle class="st0" cx="178.7" cy="16.3" r="13"/>
</g>
</svg>
