<?xml version="1.0" encoding="utf-8"?>
<!-- Generator: Adobe Illustrator 22.0.1, SVG Export Plug-In . SVG Version: 6.00 Build 0)  -->
<svg version="1.1" id="Layer_1" xmlns="http://www.w3.org/2000/svg" xmlns:xlink="http://www.w3.org/1999/xlink" x="0px" y="0px"
	 viewBox="0 0 400 400" style="enable-background:new 0 0 400 400;" xml:space="preserve">
<style type="text/css">
	.st0{fill:url(#SVGID_1_);}
	.st1{fill:#FFFFFF;}
	.st2{fill:#D03B51;}
	.st3{fill:#FFFFFF;stroke:#D03B51;stroke-miterlimit:10;}
	.st4{fill-rule:evenodd;clip-rule:evenodd;fill:#FFFFFF;}
</style>
<g>
	<linearGradient id="SVGID_1_" gradientUnits="userSpaceOnUse" x1="-2840.7549" y1="273.2148" x2="-2695.9893" y2="22.4732">
		<stop  offset="3.902440e-02" style="stop-color:#000000"/>
		<stop  offset="0.6809" style="stop-color:#000000"/>
		<stop  offset="1" style="stop-color:#000000"/>
	</linearGradient>
	<path class="st0" d="M-2768.4,3.1L-2768.4,3.1c79.9,0,144.7,64.8,144.7,144.7v0c0,79.9-64.8,144.7-144.7,144.7h0
		c-79.9,0-144.7-64.8-144.7-144.7v0C-2913.1,67.9-2848.3,3.1-2768.4,3.1z"/>
	<path class="st1" d="M-2768.4,81.4c21.6,0,24.2,0,32.8,0.5c5.1,0,10.2,1,15.1,2.8c7,2.7,12.6,8.3,15.4,15.4
		c1.8,4.8,2.7,9.9,2.8,15.1c0.4,8.5,0.5,11.1,0.5,32.8c0,21.6,0,24.2-0.5,32.8c0,5.1-1,10.2-2.8,15.1c-2.7,7-8.3,12.6-15.4,15.4
		c-4.8,1.8-9.9,2.7-15.1,2.8c-8.5,0.4-11.1,0.5-32.8,0.5s-24.2,0-32.8-0.5c-5.1,0-10.2-1-15.1-2.8c-7-2.7-12.6-8.3-15.4-15.4
		c-1.8-4.8-2.7-9.9-2.8-15.1c-0.4-8.5-0.5-11.1-0.5-32.8c0-21.6,0-24.2,0.5-32.8c0-5.1,1-10.2,2.8-15.1c2.7-7,8.3-12.6,15.4-15.4
		c4.8-1.8,9.9-2.7,15.1-2.8C-2792.6,81.5-2790,81.4-2768.4,81.4 M-2768.4,66.8c-22,0-24.8,0-33.4,0.5c-6.7,0.1-13.4,1.4-19.7,3.8
		c-11,4.2-19.7,12.9-23.8,23.8c-2.4,6.3-3.6,13-3.8,19.7c-0.4,8.7-0.5,11.4-0.5,33.4c0,22,0,24.8,0.5,33.4
		c0.1,6.7,1.4,13.4,3.8,19.7c4.2,11,12.9,19.7,23.8,23.8c6.3,2.4,13,3.6,19.7,3.8c8.7,0.4,11.4,0.5,33.4,0.5c22,0,24.8,0,33.4-0.5
		c6.7-0.1,13.4-1.4,19.7-3.8c11-4.2,19.7-12.9,23.8-23.8c2.4-6.3,3.6-13,3.8-19.7c0.4-8.7,0.5-11.4,0.5-33.4c0-22,0-24.8-0.5-33.4
		c-0.1-6.7-1.4-13.4-3.8-19.7c-4.2-11-12.9-19.7-23.8-23.8c-6.3-2.4-13-3.6-19.7-3.8C-2743.6,66.9-2746.4,66.8-2768.4,66.8z"/>
	<path class="st1" d="M-2768.4,106.2c-23,0-41.6,18.6-41.6,41.6c0,23,18.6,41.6,41.6,41.6c23,0,41.6-18.6,41.6-41.6v0
		C-2726.8,124.9-2745.4,106.2-2768.4,106.2z M-2768.4,174.9c-14.9,0-27-12.1-27-27c0-14.9,12.1-27,27-27c14.9,0,27,12.1,27,27l0,0
		C-2741.4,162.8-2753.5,174.9-2768.4,174.9L-2768.4,174.9z"/>
	<path class="st1" d="M-2725.1,94.9c5.4,0,9.7,4.4,9.7,9.7c0,5.4-4.4,9.7-9.7,9.7c-5.4,0-9.7-4.4-9.7-9.7
		C-2734.9,99.2-2730.5,94.9-2725.1,94.9z"/>
</g>
<path class="st2" d="M199.9,55.1L199.9,55.1c79.9,0,144.7,64.8,144.7,144.7v0c0,79.9-64.8,144.7-144.7,144.7h0
	c-79.9,0-144.7-64.8-144.7-144.7v0C55.2,119.9,120,55.1,199.9,55.1z"/>
<g>
	<path class="st3" d="M118.9,199.9c-1-26.6,22.2-51.1,48.8-51.4c13.5-0.8,26.8,3.8,37,12.7c-4.2,4.6-8.5,9.2-13,13.6
		c-9.1-5.5-19.9-9.6-30.4-5.9c-16.9,6-25.7,24.7-19.7,41.6c6,16.9,24.7,25.7,41.6,19.7c8.4-3.5,14.6-10.7,16.7-19.5
		c-9.8-0.2-19.7,0-29.5-0.3c0-5.9,0-11.7,0-17.5c16.4,0,32.8,0,49.2,0c1,14.3-1.1,29.7-10.4,41.2c-12.8,16.4-36.3,21.3-55.5,14.8
		c-20.8-7.2-34.7-26.7-34.7-48.7"/>
	<path class="st3" d="M251.5,177.7h14.8v14.7H281v14.6h-14.7v14.7h-14.6c0-4.9,0-9.8,0-14.7H237v-14.6h14.7c0-4.9,0-9.8,0-14.7"/>
</g>
<g>
	<path d="M-2330.3,3.1L-2330.3,3.1c79.9,0,144.7,64.8,144.7,144.7v0c0,79.9-64.8,144.7-144.7,144.7h0
		c-79.9,0-144.7-64.8-144.7-144.7v0C-2475,67.9-2410.2,3.1-2330.3,3.1z"/>
	<path class="st1" d="M-2258.2,66.8h-144.2c-4.9,0-9,4-9,9l0,0v144.2c0,4.9,4,9,9,9l0,0h77.6v-62.8h-21.1v-24.5h21.1v-18
		c0-20.9,12.8-32.4,31.5-32.4c6.3,0,12.6,0.3,18.9,1v21.9h-13c-10.2,0-12.1,4.8-12.1,11.9v15.6h24.2l-3.2,24.5h-21.1v62.8h41.3
		c4.9,0,9-4,9-9l0,0V75.7C-2249.2,70.8-2253.2,66.8-2258.2,66.8L-2258.2,66.8z"/>
</g>
<g>
	<path d="M-1890.4,395.6L-1890.4,395.6c79.9,0,144.7,64.8,144.7,144.7v0c0,79.9-64.8,144.7-144.7,144.7h0
		c-79.9,0-144.7-64.8-144.7-144.7v0C-2035.2,460.4-1970.4,395.6-1890.4,395.6z"/>
	<g>
		<path class="st4" d="M-1890.4,461.3c-44.8,0-81.1,36.3-81,81.1c0,34.9,22.3,65.9,55.4,76.9c4.1,0.7,5.5-1.8,5.5-3.9
			c0-2.1,0-8.3,0-15.1c-22.5,4.9-27.2-9.6-27.2-9.6c-3.7-9.4-9-11.9-9-11.9c-7.4-5,0.5-4.9,0.5-4.9c5.2,0.7,9.8,3.8,12.4,8.3
			c7.2,12.4,19,8.8,23.6,6.8c0.3-4.1,2.2-8,5.1-10.8c-18-2-37-9-37-40.1c-0.1-8.1,2.9-15.8,8.4-21.7c-2.5-7-2.2-14.7,0.8-21.5
			c0,0,6.8-2.2,22.3,8.3c13.3-3.6,27.3-3.6,40.6,0c15.5-10.5,22.3-8.3,22.3-8.3c3,6.8,3.3,14.5,0.8,21.5c5.5,5.9,8.5,13.7,8.3,21.7
			c0,31.2-18.9,38-37,40c3.9,4,5.9,9.5,5.5,15c0,10.8,0,19.5,0,22.2c0,2.1,1.5,4.7,5.6,3.9c42.5-14.1,65.4-60,51.3-102.5
			c-11-33.1-42-55.5-77-55.4L-1890.4,461.3z"/>
		<path class="st1" d="M-1940.8,577.7c0,0.4-0.8,0.5-1.4,0.2c-0.6-0.3-0.9-0.8-0.7-1.2c0.2-0.4,0.8-0.5,1.4-0.2
			C-1941,576.7-1940.6,577.3-1940.8,577.7z"/>
		<path class="st1" d="M-1937.5,581.3c-0.4,0.4-1.2,0.2-1.7-0.4c-0.5-0.4-0.6-1.1-0.2-1.7c0.4-0.4,1.1-0.2,1.7,0.4
			C-1937.2,580.2-1937.1,581-1937.5,581.3z"/>
		<path class="st1" d="M-1934.3,586c-0.5,0.3-1.3,0-1.8-0.7c-0.5-0.7-0.5-1.6,0-1.9c0.5-0.3,1.3,0,1.8,0.7
			C-1933.8,584.7-1933.8,585.7-1934.3,586z"/>
		<path class="st1" d="M-1930,590.5c-0.4,0.5-1.4,0.3-2.1-0.3c-0.7-0.6-0.9-1.6-0.4-2.1c0.5-0.5,1.4-0.3,2.1,0.3
			C-1929.7,589.1-1929.5,590-1930,590.5z"/>
		<path class="st1" d="M-1923.9,593.1c-0.2,0.6-1.1,0.9-2,0.6c-0.9-0.3-1.5-1-1.3-1.7c0.2-0.6,1.1-0.9,2-0.6
			C-1924.3,591.8-1923.7,592.5-1923.9,593.1z"/>
		<path class="st1" d="M-1917.3,593.6c0,0.7-0.7,1.2-1.7,1.2c-1,0-1.8-0.5-1.8-1.2c0-0.6,0.7-1.2,1.7-1.3
			C-1918,592.4-1917.3,593-1917.3,593.6L-1917.3,593.6z"/>
		<path class="st1" d="M-1911.1,592.6c0,0.6-0.6,1.3-1.5,1.5c-1,0.2-1.8-0.2-1.9-0.9c-0.1-0.6,0.5-1.4,1.5-1.5
			C-1912.1,591.5-1911.2,591.9-1911.1,592.6L-1911.1,592.6z"/>
	</g>
</g>
</svg>
